{"extensionsUsed" : ["KHR_materials_pbrSpecularGlossiness"], "accessors" : [{"bufferView" : 0, "byteOffset" : 0, "componentType" : 5123, "count" : 38658, "type" : "SCALAR", "max" : [32202], "min" : [0]}, {"bufferView" : 1, "byteOffset" : 0, "componentType" : 5126, "count" : 32203, "type" : "VEC3", "max" : [0.4978010058403015, 0.4892776310443878, 0.26279976963996887], "min" : [-0.4895487129688263, -0.48694103956222534, -0.26279976963996887], "name" : "POSITION"}, {"bufferView" : 1, "byteOffset" : 12, "componentType" : 5126, "count" : 32203, "type" : "VEC3", "max" : [0.9999328255653381, 0.9990016222000122, 0.9999927878379822], "min" : [-0.9984802603721619, -0.9998984336853027, -0.9999927878379822], "name" : "NORMAL"}, {"bufferView" : 0, "byteOffset" : 77316, "componentType" : 5123, "count" : 67242, "type" : "SCALAR", "max" : [56012], "min" : [0]}, {"bufferView" : 2, "byteOffset" : 0, "componentType" : 5126, "count" : 56013, "type" : "VEC3", "max" : [0.4968752861022949, 0.4977474510669708, 0.34265589714050293], "min" : [-0.4905058443546295, -0.49773868918418884, -0.34265589714050293], "name" : "POSITION"}, {"bufferView" : 2, "byteOffset" : 12, "componentType" : 5126, "count" : 56013, "type" : "VEC3", "max" : [0.9998070597648621, 0.9999103546142578, 1.0000030994415283], "min" : [-0.9998008012771606, -0.9964656829833984, -1.0000030994415283], "name" : "NORMAL"}], "asset" : {"generator" : "Aspose.3D 22.12", "version" : "2.0"}, "buffers" : [{"uri" : "data:application/octet-stream;base64,", "byteLength" : 2753412}], "bufferViews" : [{"buffer" : 0, "byteOffset" : 0, "byteLength" : 211800, "target" : 34963}, {"buffer" : 0, "byteOffset" : 211804, "byteLength" : 927792, "byteStride" : 24, "target" : 34962}, {"buffer" : 0, "byteOffset" : 1139600, "byteLength" : 1613808, "byteStride" : 24, "target" : 34962}], "images" : [{"uri" : "data:image/png;base64,"}, {"uri" : "data:image/png;base64,"}, {"uri" : "data:image/png;base64,"}, {"uri" : "data:image/png;base64,"}, {"uri" : "data:image/png;base64,"}, {"uri" : "data:image/png;base64,"}, {"uri" : "data:image/png;base64,"}], "materials" : [{"name" : "", "extensions" : {"KHR_materials_pbrSpecularGlossiness" : {"diffuseFactor" : [1, 1, 1, 1], "diffuseTexture" : {"index" : 0, "texCoord" : 0}, "specularFactor" : [1, 1, 1], "glossinessFactor" : 1, "specularGlossinessTexture" : {"index" : 1, "texCoord" : 0, "scale" : 1}}}, "pbrMetallicRoughness" : {"baseColorFactor" : [1, 1, 1, 1], "baseColorTexture" : {"index" : 2, "texCoord" : 0}, "metallicFactor" : 1, "roughnessFactor" : 1, "metallicRoughnessTexture" : {"index" : 3, "texCoord" : 0}}, "emissiveFactor" : [0, 0, 0], "alphaMode" : "OPAQUE", "doubleSided" : true}, {"name" : "", "extensions" : {"KHR_materials_pbrSpecularGlossiness" : {"diffuseFactor" : [1, 1, 1, 1], "diffuseTexture" : {"index" : 4, "texCoord" : 0}, "specularFactor" : [1, 1, 1], "glossinessFactor" : 1, "specularGlossinessTexture" : {"index" : 1, "texCoord" : 0, "scale" : 1}}}, "pbrMetallicRoughness" : {"baseColorFactor" : [1, 1, 1, 1], "baseColorTexture" : {"index" : 5, "texCoord" : 0}, "metallicFactor" : 1, "roughnessFactor" : 1, "metallicRoughnessTexture" : {"index" : 6, "texCoord" : 0}}, "emissiveFactor" : [0, 0, 0], "alphaMode" : "OPAQUE", "doubleSided" : true}], "meshes" : [{"primitives" : [{"attributes" : {"POSITION" : 1, "NORMAL" : 2}, "indices" : 0, "material" : 0, "mode" : 4}]}, {"primitives" : [{"attributes" : {"POSITION" : 4, "NORMAL" : 5}, "indices" : 3, "material" : 1, "mode" : 4}]}], "nodes" : [{"matrix" : [-3.4974997201393435E-08, 0, 0.2603103131362353, 0, 0, 0.16210611164569855, 0, 0, -0.38703741298556216, 0, -5.20019060056222E-08, 0, -0.0007367357611656189, -0.053874485194683075, 0.15010206401348114, 1], "mesh" : 0, "name" : "Node #0"}, {"matrix" : [-3.1537158147904596E-08, 0, 0.23472332150982841, 0, 0, 0.28995293378829956, 0, 0, -0.27649091727867053, 0, -3.7149004745621423E-08, 0, -0.001894634566269815, 0.028188971802592278, 0.12248212844133377, 1], "mesh" : 1, "name" : "Node #1"}, {"children" : [0, 1], "name" : "root"}], "samplers" : [{"magFilter" : 9728, "minFilter" : 9985, "wrapS" : 10497, "wrapT" : 10497}, {"magFilter" : 9728, "minFilter" : 9985, "wrapS" : 10497, "wrapT" : 10497}, {"magFilter" : 9728, "minFilter" : 9985, "wrapS" : 10497, "wrapT" : 10497}, {"magFilter" : 9728, "minFilter" : 9985, "wrapS" : 10497, "wrapT" : 10497}, {"magFilter" : 9728, "minFilter" : 9985, "wrapS" : 10497, "wrapT" : 10497}, {"magFilter" : 9728, "minFilter" : 9985, "wrapS" : 10497, "wrapT" : 10497}, {"magFilter" : 9728, "minFilter" : 9985, "wrapS" : 10497, "wrapT" : 10497}], "scene" : 0, "scenes" : [{"nodes" : [2]}], "textures" : [{"sampler" : 0, "source" : 0, "name" : ""}, {"sampler" : 1, "source" : 1, "name" : ""}, {"sampler" : 2, "source" : 2, "name" : ""}, {"sampler" : 3, "source" : 3, "name" : ""}, {"sampler" : 4, "source" : 4, "name" : ""}, {"sampler" : 5, "source" : 5, "name" : ""}, {"sampler" : 6, "source" : 6, "name" : ""}]}